<svg id="Layer_2" data-name="Layer 2" xmlns="http://www.w3.org/2000/svg" viewBox="0 0 694.25 932"><defs><style>.cls-1{opacity:0.88;}</style></defs><title>fiveout</title><path class="cls-1" d="M298.4,383.16v53.75H208.55V501h73.73v53.76H208.55v111H152.88V383.16Z" transform="translate(-152.88 -34)"/><path class="cls-1" d="M394.88,383.16V665.75H339.2V383.16Z" transform="translate(-152.88 -34)"/><path class="cls-1" d="M679.82,383.16l-129,295.64-129-295.64h66.81L553.12,542.5l60.66-159.34Z" transform="translate(-152.88 -34)"/><path class="cls-1" d="M841.75,383.16v53.75H758v60.28h68V551H758v61h89.14v53.75H702.31V383.16Z" transform="translate(-152.88 -34)"/><path class="cls-1" d="M170.33,771.8a131.81,131.81,0,0,1,47.34-47.86,126.81,126.81,0,0,1,129.58,0,134.74,134.74,0,0,1,47.69,47.86,126.87,126.87,0,0,1,0,129.58,132.75,132.75,0,0,1-47.69,47.17,129.32,129.32,0,0,1-129.75,0,130.24,130.24,0,0,1-47.17-47.17,129,129,0,0,1,0-129.58Zm44.92,105.39a79.37,79.37,0,0,0,28.68,29.55,76.79,76.79,0,0,0,40.26,10.88,72.91,72.91,0,0,0,39.05-10.88,77.22,77.22,0,0,0,27.64-29.37,88.39,88.39,0,0,0-.35-82.42,78.84,78.84,0,0,0-28.16-29.54,77.32,77.32,0,0,0-79.13,0A78.86,78.86,0,0,0,215.07,795a83.93,83.93,0,0,0-10.36,41.47A81.45,81.45,0,0,0,215.25,877.19Z" transform="translate(-152.88 -34)"/><path class="cls-1" d="M496.26,892.4a55.83,55.83,0,0,0,19.34,18,51.38,51.38,0,0,0,25.92,6.91,55.28,55.28,0,0,0,27.3-6.91,53.59,53.59,0,0,0,19.53-18,42.37,42.37,0,0,0,7.08-23.15V708.91h49.42V870.28q0,27.3-13.83,49.24a95.18,95.18,0,0,1-37.49,34.21Q569.85,966,541.52,966t-51.83-12.27a94.1,94.1,0,0,1-37.15-34.21q-13.65-21.93-13.65-49.24V708.91H489V869.25A41.56,41.56,0,0,0,496.26,892.4Z" transform="translate(-152.88 -34)"/><path class="cls-1" d="M847.12,708.91v48.37h-59.9v206H737.11v-206H677.68V708.91Z" transform="translate(-152.88 -34)"/><path d="M503.51,56.17l11.69-15A4.44,4.44,0,0,0,511.7,34H488.3a4.44,4.44,0,0,0-3.5,7.18l11.69,15A4.46,4.46,0,0,0,503.51,56.17Z" transform="translate(-152.88 -34)"/><rect x="172.24" y="252.37" width="349.78" height="12.59" rx="4.45" ry="4.45"/><path d="M500,53.16c-96.59,0-174.89,85.52-174.89,191,0,.76,0,1.53,0,2.29a4.45,4.45,0,0,0,4.45,4.37H670.41a4.45,4.45,0,0,0,4.45-4.37c0-.76,0-1.53,0-2.29C674.89,138.68,596.59,53.16,500,53.16ZM654.51,229.73h-1.46a4.42,4.42,0,0,1-4.34-3.6c-13.4-68.2-60.11-122.86-120.65-142.69A4.4,4.4,0,0,1,525,79.25V76.94a4.45,4.45,0,0,1,5.6-4.32c65.82,18.6,116.58,78,128.35,152A4.47,4.47,0,0,1,654.51,229.73Z" transform="translate(-152.88 -34)"/></svg>