<?xml version="1.0" encoding="utf-8"?>
<!-- Generator: Adobe Illustrator 22.1.0, SVG Export Plug-In . SVG Version: 6.00 Build 0)  -->
<svg version="1.1" id="Layer_2_1_" xmlns="http://www.w3.org/2000/svg" xmlns:xlink="http://www.w3.org/1999/xlink" x="0px" y="0px"
	 viewBox="0 0 694.2 932" style="enable-background:new 0 0 694.2 932;" xml:space="preserve">
<style type="text/css">
	.st0{fill:#FFFFFF;enable-background:new    ;}
	.st1{fill:#FFFFFF;}
</style>
<title>fiveout-w</title>
<path class="st0" d="M145.5,349.2v53.8H55.7V467h73.7v53.8H55.7v111H0V349.2H145.5z"/>
<path class="st0" d="M242,349.2v282.6h-55.7V349.2H242z"/>
<path class="st0" d="M526.9,349.2l-129,295.6l-129-295.6h66.8l64.5,159.3l60.7-159.3H526.9z"/>
<path class="st0" d="M688.9,349.2v53.8h-83.8v60.3h68V517h-68v61h89.1v53.8H549.4V349.2H688.9z"/>
<path class="st0" d="M17.4,737.8c11.4-19.8,27.7-36.3,47.3-47.9c39.9-23.7,89.6-23.7,129.6,0c19.7,11.6,36.1,28.1,47.7,47.9
	c23.7,39.9,23.7,89.6,0,129.6c-11.6,19.5-28,35.8-47.7,47.2c-40.1,23.3-89.6,23.3-129.8,0c-19.6-11.4-35.8-27.6-47.2-47.2
	C-5.8,827.3-5.8,777.9,17.4,737.8z M62.4,843.2c6.8,12.2,16.7,22.4,28.7,29.5c12.2,7.3,26.1,11,40.3,10.9c13.8,0.1,27.3-3.6,39-10.9
	c11.7-7.2,21.2-17.3,27.6-29.4c13.5-25.8,13.4-56.7-0.4-82.4c-6.6-12.1-16.3-22.3-28.2-29.5c-24.4-14.5-54.8-14.5-79.1,0
	c-11.8,7.2-21.5,17.4-28.2,29.6c-7,12.7-10.5,27-10.4,41.5C51.7,816.7,55.4,830.8,62.4,843.2z"/>
<path class="st0" d="M343.4,858.4c4.9,7.5,11.5,13.6,19.3,18c7.9,4.6,16.8,6.9,25.9,6.9c9.5,0.1,18.9-2.3,27.3-6.9
	c7.9-4.3,14.6-10.5,19.5-18c4.6-6.9,7-14.9,7.1-23.2V674.9H492v161.4c0,18.2-4.6,34.6-13.8,49.2c-9.2,14.6-22.1,26.4-37.5,34.2
	c-15.8,8.2-33.1,12.3-52,12.3s-36.2-4.1-51.8-12.3c-15.3-7.8-28.1-19.6-37.1-34.2c-9.1-14.6-13.6-31-13.6-49.2V674.9h50.1v160.3
	C336.2,843.5,338.7,851.6,343.4,858.4z"/>
<path class="st0" d="M694.2,674.9v48.4h-59.9v206h-50.1v-206h-59.4v-48.4H694.2z"/>
<path class="st1" d="M350.6,22.2l11.7-15c1.5-1.9,1.2-4.7-0.8-6.2c-0.8-0.6-1.7-0.9-2.7-0.9h-23.4C333,0,331,2,331,4.4
	c0,1,0.3,2,0.9,2.7l11.7,15c1.5,1.9,4.3,2.3,6.3,0.7C350.2,22.7,350.4,22.5,350.6,22.2z"/>
<path class="st1" d="M176.7,252.4h340.9c2.5,0,4.5,2,4.5,4.5v3.7c0,2.5-2,4.5-4.5,4.5H176.7c-2.5,0-4.4-2-4.4-4.5v-3.7
	C172.2,254.4,174.2,252.4,176.7,252.4z"/>
<path class="st1" d="M347.1,19.2c-96.6,0-174.9,85.5-174.9,191c0,0.8,0,1.5,0,2.3c0,2.4,2,4.4,4.5,4.4h340.8c2.4,0,4.4-1.9,4.5-4.4
	c0-0.8,0-1.5,0-2.3C522,104.7,443.7,19.2,347.1,19.2z M501.6,195.7h-1.5c-2.1,0-3.9-1.5-4.3-3.6c-13.4-68.2-60.1-122.9-120.7-142.7
	c-1.8-0.6-3.1-2.3-3.1-4.2v-2.3c0-2.5,2-4.5,4.4-4.5c0.4,0,0.8,0,1.2,0.2c65.8,18.6,116.6,78,128.3,152c0.4,2.4-1.3,4.7-3.8,5.1
	C502.1,195.7,501.8,195.7,501.6,195.7z"/>
</svg>
