<svg id="Layer_1" data-name="Layer 1" xmlns="http://www.w3.org/2000/svg" viewBox="0 0 100 43.27"><defs><style>.cls-1{fill:#92d723;}</style></defs><title>logo-w-c</title><g id="horizontalContainerlessSvgTemplate"><g id="line1"><path class="cls-1" d="M79.1,39.63h0a1.47,1.47,0,0,1-1-.48h0a1.52,1.52,0,0,1-.39-1h0l0-2.14h0c.07-1.31.1-2.61.1-3.9h0a30.52,30.52,0,0,0-.71-7.27h0c-.11-.39-.25-.58-.44-.58h0c-.12,0-.27.1-.46.3h0a13.66,13.66,0,0,0-2.7,4.7h0a22,22,0,0,0-1.48,6.47h0l-.13.92h0a1.47,1.47,0,0,1-1.42,1.28h0a1.47,1.47,0,0,1-.91-.31h0a1.43,1.43,0,0,1-.52-.87h0q-.18-.89-.72-5.58h0q-.66-5-.89-8.14h0a2.44,2.44,0,0,1,0-.53h0a1.36,1.36,0,0,1,1.35-1.05h0a1.29,1.29,0,0,1,1.3.84h0a47.42,47.42,0,0,1,.72,5.51h0l.51-1.07h0a14.72,14.72,0,0,1,2.6-4h0A3.86,3.86,0,0,1,76.88,21h0q3.72,0,3.8,8.78h0l0,3.44h0a50.07,50.07,0,0,1-.16,5.18h0A1.36,1.36,0,0,1,79.1,39.63Z" transform="translate(-20 -20)"/><path class="cls-1" d="M89.09,40.32h0a8.36,8.36,0,0,1-1.81-.2h0a6.89,6.89,0,0,1-5-5.33h0A10.64,10.64,0,0,1,82,32.37h0A11.06,11.06,0,0,1,82.24,30h0a13.85,13.85,0,0,1,3.26-6.76h0a5.93,5.93,0,0,1,3-2.11h0A4.82,4.82,0,0,1,89.55,21h0a3.18,3.18,0,0,1,1.36.28h0a1.4,1.4,0,0,1,.73,1.2h0a1.49,1.49,0,0,1-.51,1.15h0a1.27,1.27,0,0,1-.79.28h0a3,3,0,0,0-2.42,1h0a10.6,10.6,0,0,0-2.83,5.61h0a8.39,8.39,0,0,0-.2,1.79h0a6,6,0,0,0,.76,3.08h0a3.5,3.5,0,0,0,1.95,1.77h0a7.21,7.21,0,0,0,1.37.22h0a4.29,4.29,0,0,0,2.34-.74h0a5.12,5.12,0,0,0,1.9-2.47h0a7.52,7.52,0,0,0,.55-2.5h0a5.35,5.35,0,0,0-.38-1.94h0a2.73,2.73,0,0,0-2.27-1.94h0a2.57,2.57,0,0,1-.54-.17h0c-.61-.31-.94-.61-1-.91h0a4.07,4.07,0,0,1-.09-.57h0A1.79,1.79,0,0,1,90.06,25h0a3,3,0,0,1,1-.64h0a11.27,11.27,0,0,1,4.46-.94h0a11.44,11.44,0,0,1,3.26.48h0a2,2,0,0,1,.77.48h0a1.35,1.35,0,0,1,.41.92h0a1.24,1.24,0,0,1-.16.61h0a1.18,1.18,0,0,1-1.17.8h0c-.49,0-1-.1-1.45-.18h0a17.72,17.72,0,0,0-2.63-.31h0l.33.51h0a7.85,7.85,0,0,1,1.81,5h0a8.41,8.41,0,0,1-.28,2.12h0a8.73,8.73,0,0,1-2.16,4.13h0A6.74,6.74,0,0,1,89.09,40.32Z" transform="translate(-20 -20)"/><path class="cls-1" d="M112.73,39.33h0a1.29,1.29,0,0,1-1.35-1.4h0q0-2.35.23-7.5h0l0-1.56h0c0-1.48-.12-2.21-.36-2.21h0q-.84,0-1.91,7h0L109,36.45h0c-.17,1-.67,1.58-1.51,1.58h0c-1-.07-1.42-.67-1.42-1.81h0q-.25-11.79-.9-11.78h0c-.23,0-.56.55-1,1.65h0c-.88,2.49-1.39,6.23-1.53,11.25h0c0,1.19-.53,1.83-1.45,1.91h0a1.41,1.41,0,0,1-1.45-1h0a17.53,17.53,0,0,1-.41-1.91h0a85.43,85.43,0,0,1-1.63-12.8h0a2.93,2.93,0,0,1,.16-1h0a1.35,1.35,0,0,1,.54-.71h0a1.4,1.4,0,0,1,.78-.24h0a1.35,1.35,0,0,1,1.37,1.32h0l.41,4.46h0A22.13,22.13,0,0,1,103.17,22h0a2.73,2.73,0,0,1,2-1.07h0a2.54,2.54,0,0,1,2.14,1.38h0a12.77,12.77,0,0,1,1.07,3.24h0a12,12,0,0,1,.9-1.51h0c.68-1.13,1.43-1.7,2.27-1.7h0a2.22,2.22,0,0,1,1.83,1h0a5.59,5.59,0,0,1,.87,2.81h0c.07,1,.1,2,.1,3.21h0q0,4-.1,7.68h0C114.29,38.56,113.77,39.33,112.73,39.33Z" transform="translate(-20 -20)"/><path class="cls-1" d="M118.62,40h0c-.93,0-1.52-.75-1.76-2.25h0a58.4,58.4,0,0,1-.68-8.82h0q0-3.19.63-3.75h0a1.46,1.46,0,0,1,1-.33h0c.91,0,1.38.55,1.4,1.61h0c0,.83,0,1.68,0,2.55h0v.61h0A46,46,0,0,0,120,38.1h0a3.36,3.36,0,0,1,0,.51h0a1.29,1.29,0,0,1-.94,1.31h0A2.37,2.37,0,0,1,118.62,40Zm-.51-16.37h0a1.63,1.63,0,0,1-1.4-.9h0a1.73,1.73,0,0,1-.2-.81h0a1.9,1.9,0,0,1,.84-1.64h0a1.39,1.39,0,0,1,.79-.25h0a1.37,1.37,0,0,1,.66.18h0a1.63,1.63,0,0,1,.84,1.6h0a1.94,1.94,0,0,1-.28,1.08h0A1.49,1.49,0,0,1,118.11,23.6Z" transform="translate(-20 -20)"/></g><g id="line2"><path class="cls-1" d="M79.1,62.58h0a1.47,1.47,0,0,1-1-.48h0a1.52,1.52,0,0,1-.39-1.05h0l0-2.14h0c.07-1.31.1-2.61.1-3.9h0a30.52,30.52,0,0,0-.71-7.27h0c-.11-.39-.25-.58-.44-.58h0c-.12,0-.27.1-.46.3h0a13.71,13.71,0,0,0-2.7,4.69h0a22.13,22.13,0,0,0-1.48,6.48h0l-.13.92h0a1.46,1.46,0,0,1-1.42,1.27h0a1.46,1.46,0,0,1-.91-.3h0a1.46,1.46,0,0,1-.52-.87h0q-.18-.88-.72-5.58h0q-.66-5-.89-8.14h0a2.44,2.44,0,0,1,0-.53h0a1.36,1.36,0,0,1,1.35-1h0a1.29,1.29,0,0,1,1.3.84h0a47.42,47.42,0,0,1,.72,5.51h0l.51-1.07h0a14.72,14.72,0,0,1,2.6-4h0a3.86,3.86,0,0,1,2.88-1.66h0q3.72,0,3.8,8.78h0l0,3.44h0a49.68,49.68,0,0,1-.16,5.17h0A1.36,1.36,0,0,1,79.1,62.58Z" transform="translate(-20 -20)"/><path class="cls-1" d="M89.09,63.27h0a9,9,0,0,1-1.81-.2h0a6.89,6.89,0,0,1-5-5.33h0A10.64,10.64,0,0,1,82,55.32h0A11,11,0,0,1,82.24,53h0a13.85,13.85,0,0,1,3.26-6.76h0a5.93,5.93,0,0,1,3-2.11h0A4.82,4.82,0,0,1,89.55,44h0a3.18,3.18,0,0,1,1.36.28h0a1.4,1.4,0,0,1,.73,1.2h0a1.49,1.49,0,0,1-.51,1.15h0a1.27,1.27,0,0,1-.79.28h0a3,3,0,0,0-2.42,1h0a10.6,10.6,0,0,0-2.83,5.61h0a8.39,8.39,0,0,0-.2,1.79h0a6,6,0,0,0,.76,3.08h0a3.5,3.5,0,0,0,1.95,1.77h0a7.21,7.21,0,0,0,1.37.22h0a4.38,4.38,0,0,0,2.34-.74h0a5.12,5.12,0,0,0,1.9-2.47h0a7.52,7.52,0,0,0,.55-2.5h0a5.35,5.35,0,0,0-.38-1.94h0a2.73,2.73,0,0,0-2.27-1.94h0a2.14,2.14,0,0,1-.54-.18h0c-.61-.3-.94-.6-1-.9h0a4.07,4.07,0,0,1-.09-.57h0a1.79,1.79,0,0,1,.58-1.25h0a3,3,0,0,1,1-.64h0a11.27,11.27,0,0,1,4.46-.94h0a11.44,11.44,0,0,1,3.26.48h0a2,2,0,0,1,.77.48h0a1.35,1.35,0,0,1,.41.92h0a1.24,1.24,0,0,1-.16.61h0a1.17,1.17,0,0,1-1.17.79h0a13.67,13.67,0,0,1-1.45-.17h0a17.72,17.72,0,0,0-2.63-.31h0l.33.51h0a7.85,7.85,0,0,1,1.81,5h0a8.41,8.41,0,0,1-.28,2.12h0a8.73,8.73,0,0,1-2.16,4.13h0A6.74,6.74,0,0,1,89.09,63.27Z" transform="translate(-20 -20)"/><path class="cls-1" d="M112.73,62.28h0a1.29,1.29,0,0,1-1.35-1.4h0q0-2.35.23-7.5h0l0-1.56h0q0-2.22-.36-2.22h0q-.84,0-1.91,7h0L109,59.4h0c-.17,1.05-.67,1.58-1.51,1.58h0c-1-.07-1.42-.67-1.42-1.81h0q-.25-11.79-.9-11.78h0c-.23,0-.56.55-1,1.65h0c-.88,2.49-1.39,6.23-1.53,11.25h0c0,1.19-.53,1.83-1.45,1.91h0a1.41,1.41,0,0,1-1.45-1h0a17.53,17.53,0,0,1-.41-1.91h0a85.43,85.43,0,0,1-1.63-12.8h0a2.93,2.93,0,0,1,.16-1h0a1.35,1.35,0,0,1,.54-.71h0a1.4,1.4,0,0,1,.78-.24h0a1.35,1.35,0,0,1,1.37,1.32h0l.41,4.46h0A22.13,22.13,0,0,1,103.17,45h0a2.73,2.73,0,0,1,2-1.07h0a2.54,2.54,0,0,1,2.14,1.38h0a12.77,12.77,0,0,1,1.07,3.24h0a12,12,0,0,1,.9-1.51h0c.68-1.14,1.43-1.7,2.27-1.7h0a2.22,2.22,0,0,1,1.83,1h0a5.59,5.59,0,0,1,.87,2.81h0c.07,1,.1,2,.1,3.21h0q0,4-.1,7.68h0C114.29,61.5,113.77,62.28,112.73,62.28Z" transform="translate(-20 -20)"/><path class="cls-1" d="M118.62,62.92h0c-.93,0-1.52-.75-1.76-2.25h0a58.4,58.4,0,0,1-.68-8.82h0q0-3.19.63-3.75h0a1.46,1.46,0,0,1,1-.33h0c.91,0,1.38.55,1.4,1.61h0c0,.83,0,1.68,0,2.55h0v.61h0a46,46,0,0,0,.74,8.51h0a3.36,3.36,0,0,1,0,.51h0a1.27,1.27,0,0,1-.94,1.3h0A1.78,1.78,0,0,1,118.62,62.92Zm-.51-16.38h0a1.6,1.6,0,0,1-1.4-.89h0a1.73,1.73,0,0,1-.2-.81h0a1.9,1.9,0,0,1,.84-1.64h0a1.39,1.39,0,0,1,.79-.25h0a1.37,1.37,0,0,1,.66.18h0a1.63,1.63,0,0,1,.84,1.6h0a1.94,1.94,0,0,1-.28,1.08h0A1.48,1.48,0,0,1,118.11,46.54Z" transform="translate(-20 -20)"/></g><g id="logomark"><path d="M39.73,63.21a20.15,20.15,0,0,1-5-.22,16.31,16.31,0,0,1-6.1-2.17,21.07,21.07,0,0,1-5.09-4.64,17.12,17.12,0,0,1-3.1-5.8,12,12,0,0,1-.35-4.51,8.83,8.83,0,0,1,0-1.15,24.41,24.41,0,0,1,1.72-5.62c.62-1.32,1.29-2.61,1.91-3.93a5.13,5.13,0,0,0,.22-1.64,10.07,10.07,0,0,1,.35-1.59,14.9,14.9,0,0,0,.58-2.66,1,1,0,0,0-.4-1A4.47,4.47,0,0,1,22.7,26a7,7,0,0,0-.4-1,1.45,1.45,0,0,1,0-1.41c.23-.36.14-.76.31-1.11A4.49,4.49,0,0,1,25.4,20.3a2.66,2.66,0,0,1,1.41.13,6,6,0,0,1,3.05,1.82.77.77,0,0,0,1.07-.05,13.77,13.77,0,0,1,4.33-1.63,14.71,14.71,0,0,1,8.19.09,10.76,10.76,0,0,1,3.4,1.85c.53.45.58.45,1-.08a7.85,7.85,0,0,1,2.48-2c1.42-.84,2.79-.3,4.07.31a3.1,3.1,0,0,1,1.2,3.5,8.64,8.64,0,0,1-1.86,3.41,1.1,1.1,0,0,0-.27,1.15c.36,1.06.49,2.21.89,3.27,0,.13.13.31.09.35-.4.67.13,1.15.26,1.73A22.06,22.06,0,0,0,57,39.59a17.47,17.47,0,0,1,1.68,4c.4,1.42,1.06,2.79.84,4.34a12.79,12.79,0,0,1-1.11,4.42c-.57,1-1.28,2-1.94,2.92a32.21,32.21,0,0,1-4,4.38,7.3,7.3,0,0,1-2.3,1.24,26.36,26.36,0,0,1-3.41,1.41,27.43,27.43,0,0,1-3.93.71A8.45,8.45,0,0,1,39.73,63.21ZM37.39,20.88A10.93,10.93,0,0,0,36,21c-1.37.31-2.83.48-3.89,1.54a4,4,0,0,1-.93.84c-1.37.58-2.13,1.77-3.14,2.7a3.54,3.54,0,0,0-.62.75,31.61,31.61,0,0,0-1.64,3.54,5.33,5.33,0,0,0-.53,1.24,18.35,18.35,0,0,0,.09,3.85,7.34,7.34,0,0,0,.75,2.39,8.35,8.35,0,0,0,.8,1.86c1.37,1.68,2.78,3.36,5.08,3.76l1.15.26c1.77.27,3.5.89,5.31.58a.86.86,0,0,1,.36,0c.39.44.93.31,1.37.31a27.68,27.68,0,0,0,3.23-.22,10.88,10.88,0,0,0,5.53-2,10.64,10.64,0,0,0,2.34-2.3,11.88,11.88,0,0,0,1.51-4,11.19,11.19,0,0,0,.13-4.82,6.54,6.54,0,0,0-.36-1.91,16.69,16.69,0,0,0-3.62-4.64,14.09,14.09,0,0,0-2.13-1.46,12.87,12.87,0,0,0-4.38-1.81c-1-.22-1.94-.14-2.87-.45A9.53,9.53,0,0,0,37.39,20.88Zm-.8,38.57a7.55,7.55,0,0,1,.84.22c1.55.62,3.1.18,4.6-.09.62-.08.66-.31.53-.92a10,10,0,0,1-.26-1.15c-.09-1-.23-2,.57-2.75a6.16,6.16,0,0,1,2.61-1.46,3.75,3.75,0,0,1,3.94,1.9,5.13,5.13,0,0,0,.71,1,.58.58,0,0,0,.84.13,4.06,4.06,0,0,0,1.19-1.15,1.94,1.94,0,0,0,.53-2A10.9,10.9,0,0,1,52.34,49a31.83,31.83,0,0,0-.45-7.12c-.26,0-.35.18-.44.31a6,6,0,0,1-1.28,1.33,7.85,7.85,0,0,1-5.49,2.34,1.38,1.38,0,0,0-.39.09c-2.66.35-5.31.84-8.06.31a37.33,37.33,0,0,1-3.84-.8A13.56,13.56,0,0,1,29,44c-.26-.18-.44-.49-.84-.53-.26,1.19-.35,2.43-.62,3.63-.35,1.5-.57,3-.92,4.6A5.43,5.43,0,0,0,26.59,55a2.2,2.2,0,0,0,.93,1.32c.44.23.84.45,1.28.67.8.35,1.11.22,1.46-.58a2.59,2.59,0,0,1,.36-.7,3.07,3.07,0,0,1,2.3-1.64,7.05,7.05,0,0,1,3.67.84,1.57,1.57,0,0,1,.71.93A2.86,2.86,0,0,1,37.21,58C37,58.48,36.81,58.92,36.59,59.45ZM25.18,45.38c0-.62.13-1.23.17-1.85A2.1,2.1,0,0,0,25.18,45.38Zm1.1,5.22a6.31,6.31,0,0,0,.27-1.32A1.17,1.17,0,0,0,26.28,50.6Zm1-7.29c.18-.23.36-.4.18-.67a.14.14,0,0,0-.09,0C27.08,42.82,27.21,43,27.25,43.31Zm25.84,6.41a.84.84,0,0,0,0,.84A.92.92,0,0,0,53.09,49.72ZM45.7,58.79l-.18-.18s-.17.09-.17.18,0,.22.22.22S45.66,58.92,45.7,58.79Zm-8.93,1.5c-.27.05-.4-.22-.71.05C36.28,60.42,36.41,60.56,36.77,60.29Zm8.09,1.2a.18.18,0,0,0-.18.17.16.16,0,0,0,.18.18.3.3,0,0,0,.22-.09A.42.42,0,0,0,44.86,61.49Z" transform="translate(-20 -20)"/><path d="M35.31,30a2.57,2.57,0,0,0-2.57-2.65,4.2,4.2,0,0,0-3.41,1.81,6.61,6.61,0,0,0-1.19,4.21c0,.22,0,.48,0,.79a2.36,2.36,0,0,0,1.59,2.3c.48.14,1,.27,1.5.36a1.84,1.84,0,0,0,1.64-.4,6.71,6.71,0,0,0,2.3-3.76A9.06,9.06,0,0,0,35.31,30Zm-2.26,3.32a.2.2,0,0,1,0,.27c0,.09-.08.26-.31.22a.19.19,0,0,1,0-.09,1.39,1.39,0,0,1-1.42.62s-.08,0-.17,0a.23.23,0,0,1-.22-.17,1.77,1.77,0,0,1-1-2.08,4.14,4.14,0,0,1,.4-.93,1.47,1.47,0,0,1,.75-.8s.09,0,.13-.09a1,1,0,0,1,1.28.18,1.08,1.08,0,0,1,.8,1A4.74,4.74,0,0,1,33,33.26C33,33.35,33.05,33.35,33.05,33.35Zm17.08-3a3.35,3.35,0,0,0-2.75-2.92,2.83,2.83,0,0,0-3,1.11,6.15,6.15,0,0,0-1,3.58,8.93,8.93,0,0,0,.17,1.06,3.56,3.56,0,0,0,5.44,2.48.86.86,0,0,0,.4-.4,7.8,7.8,0,0,0,1-2.83A6.06,6.06,0,0,0,50.13,30.34Zm-2.48,3h0a1.08,1.08,0,0,1-1.46-.4c-.57-1-.39-3,1.11-3a1,1,0,0,1,1.24.57,1.65,1.65,0,0,1,.44,1.06A1.77,1.77,0,0,1,47.65,33.35Zm-8.27-.93c1.28.14,1.54.62,1.32,1.73a5.8,5.8,0,0,1-.7,1.9c-.23.35-.49.49-.89.27a3.37,3.37,0,0,1-1.37-3c0-.14.09-.27.18-.31C38.4,32.64,39,32.64,39.38,32.42Zm-1.24,5.89A22.2,22.2,0,0,0,41.37,38c.22,0,.48-.13.57.13s-.09.36-.22.49a2.14,2.14,0,0,0-.27.31c-1.45,1.64-2.56,1.5-4-.13-.13-.14-.27-.31-.18-.53s.31-.14.49-.09A1.16,1.16,0,0,1,38.14,38.31Z" transform="translate(-20 -20)"/></g></g></svg>