<?xml version="1.0" standalone="no"?>
<!DOCTYPE svg PUBLIC "-//W3C//DTD SVG 20010904//EN"
 "http://www.w3.org/TR/2001/REC-SVG-20010904/DTD/svg10.dtd">
<svg version="1.0" xmlns="http://www.w3.org/2000/svg"
 width="542.000000pt" height="542.000000pt" viewBox="0 0 542.000000 542.000000"
 preserveAspectRatio="xMidYMid meet">
<metadata>
Created by potrace 1.11, written by Peter Selinger 2001-2013
</metadata>
<g transform="translate(0.000000,542.000000) scale(0.100000,-0.100000)"
fill="#000000" stroke="none">
<path d="M698 5410 c-318 -54 -579 -291 -670 -607 l-23 -78 0 -2010 c0 -1931
1 -2013 19 -2080 90 -339 373 -586 716 -625 66 -8 681 -10 2035 -8 l1940 3 76
22 c260 74 477 266 569 505 63 162 60 63 60 2162 0 1275 -3 1940 -11 1996 -21
176 -98 336 -223 467 -108 114 -236 192 -391 239 -57 18 -158 19 -2055 20
-1097 1 -2016 -2 -2042 -6z m3061 -955 c27 -14 66 -28 87 -31 84 -11 79 -5 79
-89 0 -69 -3 -79 -24 -96 -13 -10 -29 -19 -37 -19 -26 0 -14 -41 22 -72 50
-44 77 -102 78 -166 1 -48 -2 -57 -30 -82 -18 -15 -58 -38 -90 -50 -114 -43
-189 -48 -777 -54 -645 -6 -612 -1 -659 -96 -27 -55 -38 -125 -53 -337 l-5
-81 54 -21 c32 -12 115 -27 203 -36 453 -50 638 -91 815 -182 300 -154 459
-447 458 -848 -1 -188 -37 -342 -120 -510 -140 -282 -373 -506 -683 -655 -364
-175 -741 -209 -1147 -104 -263 68 -457 183 -506 300 -19 46 -18 113 3 136 9
10 19 18 23 18 4 0 24 -25 45 -55 53 -77 152 -167 243 -220 42 -25 81 -45 86
-45 5 0 -17 16 -49 36 -112 67 -196 151 -254 255 l-23 39 31 11 30 11 -35 62
c-47 86 -43 165 10 224 18 21 28 23 79 20 70 -5 95 -22 162 -111 66 -87 82
-102 56 -50 -16 33 -18 43 -8 43 20 0 111 -33 187 -67 149 -68 194 -78 342
-78 125 0 138 -2 138 -17 0 -25 18 -23 137 17 337 113 595 340 658 581 19 72
19 202 1 269 -7 28 -25 75 -41 105 -29 57 -126 160 -150 160 -27 0 -15 -25 24
-52 46 -33 102 -114 126 -183 22 -62 22 -205 0 -290 -27 -108 -87 -214 -164
-292 -38 -39 -85 -81 -103 -94 -18 -13 -1 8 38 46 83 82 121 136 172 243 37
77 37 78 37 207 0 113 -3 136 -22 178 -61 131 -245 257 -472 322 -111 32 -206
48 -476 80 -262 31 -275 32 -344 52 -166 45 -226 176 -201 436 15 161 42 321
91 547 50 235 81 336 100 331 8 -2 37 -7 65 -10 29 -4 59 -13 68 -20 22 -19
21 -94 -4 -175 -12 -37 -18 -71 -15 -76 13 -21 35 -8 61 38 15 26 37 64 50 84
19 30 22 42 14 63 -17 45 -11 81 25 149 19 37 35 73 35 81 0 19 13 19 51 0 16
-9 35 -13 41 -9 6 4 61 10 122 14 l111 8 -132 -2 c-123 -1 -134 1 -154 20 -20
20 -20 23 -5 51 15 30 16 30 126 37 61 4 118 10 126 13 10 3 18 -5 25 -27 9
-26 16 -31 34 -26 64 16 175 26 300 26 154 0 298 13 351 30 42 14 48 44 7 36
-72 -14 -484 -45 -617 -46 -70 0 -6 11 199 34 121 14 290 35 375 46 146 19
347 35 488 39 49 1 73 -4 111 -24z m-849 -2840 c0 -2 -10 -9 -22 -15 -22 -11
-22 -10 -4 4 21 17 26 19 26 11z"/>
<path d="M2873 3913 c37 -2 97 -2 135 0 37 2 6 3 -68 3 -74 0 -105 -1 -67 -3z"/>
<path d="M2360 3880 c25 -4 49 -4 55 1 5 5 -13 8 -45 8 l-55 -2 45 -7z"/>
<path d="M3326 1935 c-9 -26 -7 -32 5 -12 6 10 9 21 6 23 -2 3 -7 -2 -11 -11z"/>
<path d="M3280 1837 c-46 -80 -182 -222 -272 -284 -217 -150 -469 -223 -717
-208 -184 11 -294 46 -396 127 -46 36 -45 35 10 -17 120 -112 264 -154 480
-142 352 21 763 259 909 527 40 73 28 70 -14 -3z"/>
<path d="M3479 1464 c-86 -90 -249 -208 -402 -290 -45 -24 -78 -44 -73 -44 23
0 233 119 307 175 74 56 222 195 208 195 -3 0 -21 -16 -40 -36z"/>
<path d="M2960 1120 c-8 -5 -10 -10 -5 -10 6 0 17 5 25 10 8 5 11 10 5 10 -5
0 -17 -5 -25 -10z"/>
<path d="M1850 1050 c8 -5 20 -10 25 -10 6 0 3 5 -5 10 -8 5 -19 10 -25 10 -5
0 -3 -5 5 -10z"/>
</g>
</svg>
